<svg width="147" height="40" fill="none" xmlns="http://www.w3.org/2000/svg"><path d="M72.693 18.425c0-.2.08-.393.224-.538a.807.807 0 01.548-.236h7.205c2.474 0 4.47.648 5.838 1.772 1.357 1.116 2.14 2.735 2.14 4.788v.06c0 2.238-.944 3.914-2.443 5.043-1.514 1.14-3.625 1.743-5.957 1.743h-5.994v7.257l.002.022a.744.744 0 01-.2.58.786.786 0 01-.582.25.804.804 0 01-.583-.25.758.758 0 01-.2-.58l.002-.022V18.425zm7.652 11.361h.004c1.956 0 3.627-.515 4.82-1.466 1.203-.96 1.887-2.338 1.887-3.97v-.06c0-1.731-.667-3.09-1.857-4.003-1.171-.899-2.799-1.325-4.67-1.325h-6.224v10.781l.496.004 5.544.04z" fill="#fff"/><path d="M72.693 18.425v0c0-.2.08-.393.224-.538a.807.807 0 01.548-.236h7.205c2.474 0 4.47.648 5.838 1.772 1.357 1.116 2.14 2.735 2.14 4.788v.06c0 2.238-.944 3.914-2.443 5.043-1.514 1.14-3.625 1.743-5.957 1.743h-5.994v7.257l.002.022a.744.744 0 01-.2.58.786.786 0 01-.582.25.804.804 0 01-.583-.25.758.758 0 01-.2-.58l.002-.022V18.425zm7.652 11.361v0h.004c1.956 0 3.627-.515 4.82-1.466 1.203-.96 1.887-2.338 1.887-3.97v-.06c0-1.731-.667-3.09-1.857-4.003-1.171-.899-2.799-1.325-4.67-1.325h-6.224v10.781l.496.004 5.544.04z" stroke="#000"/><path d="M72.693 18.425v0c0-.2.08-.393.224-.538a.807.807 0 01.548-.236h7.205c2.474 0 4.47.648 5.838 1.772 1.357 1.116 2.14 2.735 2.14 4.788v.06c0 2.238-.944 3.914-2.443 5.043-1.514 1.14-3.625 1.743-5.957 1.743h-5.994v7.257l.002.022a.744.744 0 01-.2.58.786.786 0 01-.582.25.804.804 0 01-.583-.25.758.758 0 01-.2-.58l.002-.022V18.425zm7.652 11.361v0h.004c1.956 0 3.627-.515 4.82-1.466 1.203-.96 1.887-2.338 1.887-3.97v-.06c0-1.731-.667-3.09-1.857-4.003-1.171-.899-2.799-1.325-4.67-1.325h-6.224v10.781l.496.004 5.544.04z" stroke="url(#paint0_linear)"/><path d="M94.519 18.267v-.023l-.002-.022a.742.742 0 01.2-.58.785.785 0 01.582-.25.805.805 0 01.583.25l.365-.34-.365.34a.758.758 0 01.2.58l-.002.022v20.07l.002.022a.744.744 0 01-.2.58.786.786 0 01-.583.25.806.806 0 01-.582-.25.76.76 0 01-.2-.58l.002-.022V18.267z" fill="#fff"/><path d="M94.519 18.267v-.023l-.002-.022a.742.742 0 01.2-.58.785.785 0 01.582-.25.805.805 0 01.583.25l.365-.34-.365.34a.758.758 0 01.2.58l-.002.022v20.07l.002.022a.744.744 0 01-.2.58.786.786 0 01-.583.25.806.806 0 01-.582-.25.76.76 0 01-.2-.58l.002-.022V18.267z" stroke="#000"/><path d="M94.519 18.267v-.023l-.002-.022a.742.742 0 01.2-.58.785.785 0 01.582-.25.805.805 0 01.583.25l.365-.34-.365.34a.758.758 0 01.2.58l-.002.022v20.07l.002.022a.744.744 0 01-.2.58.786.786 0 01-.583.25.806.806 0 01-.582-.25.76.76 0 01-.2-.58l.002-.022V18.267z" stroke="url(#paint1_linear)"/><path d="M103.739 18.297v-.213a.758.758 0 01.189-.297.794.794 0 01.54-.225h.342c.177.005.35.052.503.138.154.087.282.21.374.357l.015.025.019.023 13.75 17.23.891 1.116V18.237c0-.19.076-.372.215-.509a.756.756 0 011.06 0l.348-.354-.348.354c.139.137.215.32.215.51V38.34l.001.009a.61.61 0 01-.182.457.644.644 0 01-.475.19h-.121a1.24 1.24 0 01-.523-.163 1.21 1.21 0 01-.403-.381l-.013-.02-.014-.018L106.06 20.78l-.89-1.117v18.666a.732.732 0 01-.211.506.773.773 0 01-.502.23.755.755 0 01-.509-.221.71.71 0 01-.209-.509V18.296z" fill="#fff"/><path d="M103.739 18.297v-.213a.758.758 0 01.189-.297.794.794 0 01.54-.225h.342c.177.005.35.052.503.138.154.087.282.21.374.357l.015.025.019.023 13.75 17.23.891 1.116V18.237c0-.19.076-.372.215-.509a.756.756 0 011.06 0l.348-.354-.348.354c.139.137.215.32.215.51V38.34l.001.009a.61.61 0 01-.182.457.644.644 0 01-.475.19h0-.121a1.24 1.24 0 01-.523-.163 1.21 1.21 0 01-.403-.381l-.013-.02-.014-.018L106.06 20.78l-.89-1.117v18.666a.732.732 0 01-.211.506.773.773 0 01-.502.23.755.755 0 01-.509-.221.71.71 0 01-.209-.509h0V18.296z" stroke="#000"/><path d="M103.739 18.297v-.213a.758.758 0 01.189-.297.794.794 0 01.54-.225h.342c.177.005.35.052.503.138.154.087.282.21.374.357l.015.025.019.023 13.75 17.23.891 1.116V18.237c0-.19.076-.372.215-.509a.756.756 0 011.06 0l.348-.354-.348.354c.139.137.215.32.215.51V38.34l.001.009a.61.61 0 01-.182.457.644.644 0 01-.475.19h0-.121a1.24 1.24 0 01-.523-.163 1.21 1.21 0 01-.403-.381l-.013-.02-.014-.018L106.06 20.78l-.89-1.117v18.666a.732.732 0 01-.211.506.773.773 0 01-.502.23.755.755 0 01-.509-.221.71.71 0 01-.209-.509h0V18.296z" stroke="url(#paint2_linear)"/><path d="M129.25 18.267v-.26a.77.77 0 01.451-.55.811.811 0 01.639 0c.101.044.19.107.263.186l.366-.341-.366.34a.758.758 0 01.2.58l-.002.022v13.412l.855-.862 12.897-13.004.001-.002a1 1 0 01.649-.294.794.794 0 01.514.232l.354-.352-.354.352a.751.751 0 01.22.505.752.752 0 01-.255.522l-.008.007-.007.008-8.035 7.82-.331.322.295.356 8.668 10.427.009.01a.909.909 0 01.227.593.776.776 0 01-.251.55l.341.365-.341-.366a.821.821 0 01-.587.22.76.76 0 01-.601-.342l-.016-.024-.018-.023-8.457-10.358-.347-.424-.391.384-4.881 4.799-.15.147v5.048a.74.74 0 01-.224.53l.342.347-.342-.347a.79.79 0 01-1.103 0 .757.757 0 01-.224-.53V18.267z" fill="#fff"/><path d="M129.25 18.267v-.26a.77.77 0 01.451-.55.811.811 0 01.639 0c.101.044.19.107.263.186l.366-.341-.366.34a.758.758 0 01.2.58l-.002.022v13.412l.855-.862 12.897-13.004.001-.002a1 1 0 01.649-.294.794.794 0 01.514.232l.354-.352-.354.352a.751.751 0 01.22.505.752.752 0 01-.255.522l-.008.007-.007.008-8.035 7.82-.331.322.295.356 8.668 10.427h0l.009.01a.909.909 0 01.227.593.776.776 0 01-.251.55l.341.365-.341-.366a.821.821 0 01-.587.22.76.76 0 01-.601-.342l-.016-.024-.018-.023-8.457-10.358-.347-.424-.391.384-4.881 4.799-.15.147v5.048a.74.74 0 01-.224.53l.342.347-.342-.347a.79.79 0 01-1.103 0 .757.757 0 01-.224-.53V18.267z" stroke="#000"/><path d="M129.25 18.267v-.26a.77.77 0 01.451-.55.811.811 0 01.639 0c.101.044.19.107.263.186l.366-.341-.366.34a.758.758 0 01.2.58l-.002.022v13.412l.855-.862 12.897-13.004.001-.002a1 1 0 01.649-.294.794.794 0 01.514.232l.354-.352-.354.352a.751.751 0 01.22.505.752.752 0 01-.255.522l-.008.007-.007.008-8.035 7.82-.331.322.295.356 8.668 10.427h0l.009.01a.909.909 0 01.227.593.776.776 0 01-.251.55l.341.365-.341-.366a.821.821 0 01-.587.22.76.76 0 01-.601-.342l-.016-.024-.018-.023-8.457-10.358-.347-.424-.391.384-4.881 4.799-.15.147v5.048a.74.74 0 01-.224.53l.342.347-.342-.347a.79.79 0 01-1.103 0 .757.757 0 01-.224-.53V18.267z" stroke="url(#paint3_linear)"/><path d="M96.016 9.056c.28.276.598.508.94.692a4.148 4.148 0 00-1.66 1.641 4.09 4.09 0 00-1.656-1.641 4.13 4.13 0 001.656-1.638c.19.345.432.664.72.946z" fill="#D22856"/><path d="M96.016 9.056c.28.276.598.508.94.692a4.148 4.148 0 00-1.66 1.641 4.09 4.09 0 00-1.656-1.641 4.13 4.13 0 001.656-1.638c.19.345.432.664.72.946z" stroke="#000"/><path d="M96.016 9.056c.28.276.598.508.94.692a4.148 4.148 0 00-1.66 1.641 4.09 4.09 0 00-1.656-1.641 4.13 4.13 0 001.656-1.638c.19.345.432.664.72.946z" stroke="url(#paint4_linear)"/><path d="M39.427 17.22a2.464 2.464 0 011.125 1.697 9.473 9.473 0 012.232-.347 2.024 2.024 0 00-.905-.218l-2.452-1.132zm0 0c.096-.034.191-.066.287-.097l-.287.097z" fill="#fff"/><path d="M39.427 17.22a2.464 2.464 0 011.125 1.697 9.473 9.473 0 012.232-.347 2.024 2.024 0 00-.905-.218l-2.452-1.132zm0 0c.096-.034.191-.066.287-.097l-.287.097z" stroke="#000"/><path d="M39.427 17.22a2.464 2.464 0 011.125 1.697 9.473 9.473 0 012.232-.347 2.024 2.024 0 00-.905-.218l-2.452-1.132zm0 0c.096-.034.191-.066.287-.097l-.287.097z" stroke="url(#paint5_linear)"/><path d="M60.248 27.767l.005.02.006.02a.87.87 0 01-.145.823.913.913 0 01-.35.27.938.938 0 01-.442.075l-.017-.001h-4.482l-.05.443a11.284 11.284 0 01-3.778 7.192 11.672 11.672 0 01-7.703 2.891c-2.843 0-5.585-1.03-7.703-2.89a11.284 11.284 0 01-3.777-7.193l-.051-.443h-2.715l-.055.437a11.288 11.288 0 01-3.832 7.12 11.673 11.673 0 01-7.683 2.83h-.002a11.596 11.596 0 01-7.05-2.374 2.45 2.45 0 00.088-.626v-.005c0-.06.024-.12.07-.166a.26.26 0 01.178-.075 2.535 2.535 0 001.307-.372 9.653 9.653 0 005.453 1.597 9.679 9.679 0 006.72-2.764 9.37 9.37 0 002.814-6.62v-.005a9.513 9.513 0 00-.137-1.559 9.348 9.348 0 00-3.212-5.715 9.631 9.631 0 00-6.22-2.27c-2.283 0-4.49.805-6.221 2.27a9.348 9.348 0 00-3.212 5.715 9.521 9.521 0 00-.137 1.559v.007c.001.155.006.31.015.464a2.525 2.525 0 00-1.92.97l-.002-.014-.058-.434H1.47a.947.947 0 01-.776-.346.89.89 0 01-.158-.807l.004-.012.003-.012L5.746 6.686l.006-.021.003-.022C6.089 4.5 8.181.5 13.899.5c.27 0 .526.105.715.29a.969.969 0 01.291.691.969.969 0 01-.291.69 1.02 1.02 0 01-.715.291c-2.572 0-4.116.985-5.015 2.074-.854 1.035-1.093 2.12-1.14 2.415L2.956 26.402l-.152.62H5.97l.05-.446a11.283 11.283 0 013.765-7.22 11.67 11.67 0 017.72-2.905c2.85 0 5.599 1.035 7.719 2.905a11.283 11.283 0 013.766 7.22l.049.445h2.759l.053-.44a11.043 11.043 0 011.13-3.702c.113.326.295.627.537.883.274.289.61.506.981.638a9.588 9.588 0 00-.741 3.587v.012a9.53 9.53 0 00.147 1.558 9.349 9.349 0 003.22 5.691 9.632 9.632 0 006.207 2.259 9.63 9.63 0 006.208-2.259 9.35 9.35 0 003.22-5.691 9.521 9.521 0 00.147-1.558v-.013a9.473 9.473 0 00-1.156-4.402 9.641 9.641 0 00-2.861-3.228v-.01c.003-.38.119-.75.334-1.069.17-.252.397-.461.663-.613a11.439 11.439 0 013.215 3.326 11.22 11.22 0 011.651 4.575l.056.437h3.177l-.152-.62-4.777-19.435a5.449 5.449 0 00-1.135-2.41c-.896-1.09-2.438-2.075-5.02-2.075a1.02 1.02 0 01-.714-.29.969.969 0 01-.292-.69.97.97 0 01.292-.692 1.02 1.02 0 01.715-.29c5.718 0 7.81 4 8.144 6.143l.003.022.005.02 5.193 21.082z" fill="#fff"/><path d="M60.248 27.767l.005.02.006.02a.87.87 0 01-.145.823.913.913 0 01-.35.27.938.938 0 01-.442.075l-.017-.001h-4.482l-.05.443a11.284 11.284 0 01-3.778 7.192 11.672 11.672 0 01-7.703 2.891c-2.843 0-5.585-1.03-7.703-2.89a11.284 11.284 0 01-3.777-7.193l-.051-.443h-2.715l-.055.437a11.288 11.288 0 01-3.832 7.12 11.673 11.673 0 01-7.683 2.83h-.002a11.596 11.596 0 01-7.05-2.374 2.45 2.45 0 00.088-.626v-.005c0-.06.024-.12.07-.166a.26.26 0 01.178-.075 2.535 2.535 0 001.307-.372 9.653 9.653 0 005.453 1.597 9.679 9.679 0 006.72-2.764 9.37 9.37 0 002.814-6.62h0v-.005a9.513 9.513 0 00-.137-1.559 9.348 9.348 0 00-3.212-5.715 9.631 9.631 0 00-6.22-2.27c-2.283 0-4.49.805-6.221 2.27a9.348 9.348 0 00-3.212 5.715 9.521 9.521 0 00-.137 1.559h0v.007c.001.155.006.31.015.464a2.525 2.525 0 00-1.92.97l-.002-.014-.058-.434H1.47a.947.947 0 01-.776-.346.89.89 0 01-.158-.807l.004-.012.003-.012L5.746 6.686l.006-.021.003-.022C6.089 4.5 8.181.5 13.899.5c.27 0 .526.105.715.29a.969.969 0 01.291.691.969.969 0 01-.291.69 1.02 1.02 0 01-.715.291c-2.572 0-4.116.985-5.015 2.074-.854 1.035-1.093 2.12-1.14 2.415L2.956 26.402l-.152.62H5.97l.05-.446a11.283 11.283 0 013.765-7.22 11.67 11.67 0 017.72-2.905c2.85 0 5.599 1.035 7.719 2.905a11.283 11.283 0 013.766 7.22l.049.445h2.759l.053-.44a11.043 11.043 0 011.13-3.702c.113.326.295.627.537.883.274.289.61.506.981.638a9.588 9.588 0 00-.741 3.587h0v.012a9.53 9.53 0 00.147 1.558 9.349 9.349 0 003.22 5.691 9.632 9.632 0 006.207 2.259 9.63 9.63 0 006.208-2.259 9.35 9.35 0 003.22-5.691 9.521 9.521 0 00.147-1.558h0v-.013a9.473 9.473 0 00-1.156-4.402 9.641 9.641 0 00-2.861-3.228v-.01c.003-.38.119-.75.334-1.069.17-.252.397-.461.663-.613a11.439 11.439 0 013.215 3.326 11.22 11.22 0 011.651 4.575l.056.437h3.177l-.152-.62-4.777-19.435a5.449 5.449 0 00-1.135-2.41c-.896-1.09-2.438-2.075-5.02-2.075a1.02 1.02 0 01-.714-.29.969.969 0 01-.292-.69.97.97 0 01.292-.692 1.02 1.02 0 01.715-.29c5.718 0 7.81 4 8.144 6.143l.003.022.005.02 5.193 21.082z" stroke="#000"/><path d="M60.248 27.767l.005.02.006.02a.87.87 0 01-.145.823.913.913 0 01-.35.27.938.938 0 01-.442.075l-.017-.001h-4.482l-.05.443a11.284 11.284 0 01-3.778 7.192 11.672 11.672 0 01-7.703 2.891c-2.843 0-5.585-1.03-7.703-2.89a11.284 11.284 0 01-3.777-7.193l-.051-.443h-2.715l-.055.437a11.288 11.288 0 01-3.832 7.12 11.673 11.673 0 01-7.683 2.83h-.002a11.596 11.596 0 01-7.05-2.374 2.45 2.45 0 00.088-.626v-.005c0-.06.024-.12.07-.166a.26.26 0 01.178-.075 2.535 2.535 0 001.307-.372 9.653 9.653 0 005.453 1.597 9.679 9.679 0 006.72-2.764 9.37 9.37 0 002.814-6.62h0v-.005a9.513 9.513 0 00-.137-1.559 9.348 9.348 0 00-3.212-5.715 9.631 9.631 0 00-6.22-2.27c-2.283 0-4.49.805-6.221 2.27a9.348 9.348 0 00-3.212 5.715 9.521 9.521 0 00-.137 1.559h0v.007c.001.155.006.31.015.464a2.525 2.525 0 00-1.92.97l-.002-.014-.058-.434H1.47a.947.947 0 01-.776-.346.89.89 0 01-.158-.807l.004-.012.003-.012L5.746 6.686l.006-.021.003-.022C6.089 4.5 8.181.5 13.899.5c.27 0 .526.105.715.29a.969.969 0 01.291.691.969.969 0 01-.291.69 1.02 1.02 0 01-.715.291c-2.572 0-4.116.985-5.015 2.074-.854 1.035-1.093 2.12-1.14 2.415L2.956 26.402l-.152.62H5.97l.05-.446a11.283 11.283 0 013.765-7.22 11.67 11.67 0 017.72-2.905c2.85 0 5.599 1.035 7.719 2.905a11.283 11.283 0 013.766 7.22l.049.445h2.759l.053-.44a11.043 11.043 0 011.13-3.702c.113.326.295.627.537.883.274.289.61.506.981.638a9.588 9.588 0 00-.741 3.587h0v.012a9.53 9.53 0 00.147 1.558 9.349 9.349 0 003.22 5.691 9.632 9.632 0 006.207 2.259 9.63 9.63 0 006.208-2.259 9.35 9.35 0 003.22-5.691 9.521 9.521 0 00.147-1.558h0v-.013a9.473 9.473 0 00-1.156-4.402 9.641 9.641 0 00-2.861-3.228v-.01c.003-.38.119-.75.334-1.069.17-.252.397-.461.663-.613a11.439 11.439 0 013.215 3.326 11.22 11.22 0 011.651 4.575l.056.437h3.177l-.152-.62-4.777-19.435a5.449 5.449 0 00-1.135-2.41c-.896-1.09-2.438-2.075-5.02-2.075a1.02 1.02 0 01-.714-.29.969.969 0 01-.292-.69.97.97 0 01.292-.692 1.02 1.02 0 01.715-.29c5.718 0 7.81 4 8.144 6.143l.003.022.005.02 5.193 21.082z" stroke="url(#paint6_linear)"/><path d="M46.399 13.628a4.959 4.959 0 002.318 2.29 5.019 5.019 0 00-1.343.944 4.945 4.945 0 00-.975 1.351 4.953 4.953 0 00-.975-1.348 5.029 5.029 0 00-1.347-.946 5.02 5.02 0 001.346-.943 4.94 4.94 0 00.976-1.348z" fill="#D22856"/><path d="M46.399 13.628a4.959 4.959 0 002.318 2.29 5.019 5.019 0 00-1.343.944 4.945 4.945 0 00-.975 1.351 4.953 4.953 0 00-.975-1.348 5.029 5.029 0 00-1.347-.946 5.02 5.02 0 001.346-.943 4.94 4.94 0 00.976-1.348z" stroke="#000"/><path d="M46.399 13.628a4.959 4.959 0 002.318 2.29 5.019 5.019 0 00-1.343.944 4.945 4.945 0 00-.975 1.351 4.953 4.953 0 00-.975-1.348 5.029 5.029 0 00-1.347-.946 5.02 5.02 0 001.346-.943 4.94 4.94 0 00.976-1.348z" stroke="url(#paint7_linear)"/><path d="M35.314 20.384a3.213 3.213 0 00-1.013-1.004 3.254 3.254 0 001.011-1.002 3.222 3.222 0 001.015 1.005 3.248 3.248 0 00-1.013 1z" fill="#D22856"/><path d="M35.314 20.384a3.213 3.213 0 00-1.013-1.004 3.254 3.254 0 001.011-1.002 3.222 3.222 0 001.015 1.005 3.248 3.248 0 00-1.013 1z" stroke="#000"/><path d="M35.314 20.384a3.213 3.213 0 00-1.013-1.004 3.254 3.254 0 001.011-1.002 3.222 3.222 0 001.015 1.005 3.248 3.248 0 00-1.013 1z" stroke="url(#paint8_linear)"/><path d="M7.589 33.198a3.25 3.25 0 00.454-.562 3.22 3.22 0 001.015 1.005 3.253 3.253 0 00-1.015 1.004 3.222 3.222 0 00-1.015-1.004 3.25 3.25 0 00.56-.443z" fill="#D22856"/><path d="M7.589 33.198a3.25 3.25 0 00.454-.562 3.22 3.22 0 001.015 1.005 3.253 3.253 0 00-1.015 1.004 3.222 3.222 0 00-1.015-1.004 3.25 3.25 0 00.56-.443z" stroke="#000"/><path d="M7.589 33.198a3.25 3.25 0 00.454-.562 3.22 3.22 0 001.015 1.005 3.253 3.253 0 00-1.015 1.004 3.222 3.222 0 00-1.015-1.004 3.25 3.25 0 00.56-.443z" stroke="url(#paint9_linear)"/><defs><linearGradient id="paint0_linear" x1="80.668" y1="17.151" x2="80.668" y2="39.667" gradientUnits="userSpaceOnUse"><stop stop-color="#fff"/><stop offset="1" stop-color="#fff" stop-opacity="0"/></linearGradient><linearGradient id="paint1_linear" x1="95.299" y1="16.891" x2="95.299" y2="39.667" gradientUnits="userSpaceOnUse"><stop stop-color="#fff"/><stop offset="1" stop-color="#fff" stop-opacity="0"/></linearGradient><linearGradient id="paint2_linear" x1="112.776" y1="17.013" x2="112.776" y2="39.565" gradientUnits="userSpaceOnUse"><stop stop-color="#fff"/><stop offset="1" stop-color="#fff" stop-opacity="0"/></linearGradient><linearGradient id="paint3_linear" x1="137.868" y1="16.891" x2="137.868" y2="39.566" gradientUnits="userSpaceOnUse"><stop stop-color="#fff"/><stop offset="1" stop-color="#fff" stop-opacity="0"/></linearGradient><linearGradient id="paint4_linear" x1="95.299" y1="6.171" x2="95.299" y2="13.33" gradientUnits="userSpaceOnUse"><stop stop-color="#fff"/><stop offset="1" stop-color="#fff" stop-opacity="0"/></linearGradient><linearGradient id="paint5_linear" x1="40.952" y1="16.519" x2="40.952" y2="19.59" gradientUnits="userSpaceOnUse"><stop stop-color="#fff"/><stop offset="1" stop-color="#fff" stop-opacity="0"/></linearGradient><linearGradient id="paint6_linear" x1="30.403" y1="0" x2="30.403" y2="40" gradientUnits="userSpaceOnUse"><stop stop-color="#fff"/><stop offset="1" stop-color="#fff" stop-opacity="0"/></linearGradient><linearGradient id="paint7_linear" x1="46.401" y1="11.483" x2="46.401" y2="20.36" gradientUnits="userSpaceOnUse"><stop stop-color="#fff"/><stop offset="1" stop-color="#fff" stop-opacity="0"/></linearGradient><linearGradient id="paint8_linear" x1="35.317" y1="16.667" x2="35.317" y2="22.088" gradientUnits="userSpaceOnUse"><stop stop-color="#fff"/><stop offset="1" stop-color="#fff" stop-opacity="0"/></linearGradient><linearGradient id="paint9_linear" x1="8.038" y1="30.925" x2="8.038" y2="36.356" gradientUnits="userSpaceOnUse"><stop stop-color="#fff"/><stop offset="1" stop-color="#fff" stop-opacity="0"/></linearGradient></defs></svg>