<svg width="147" height="40" viewBox="0 0 147 40" fill="none" xmlns="http://www.w3.org/2000/svg">
<path d="M72.6933 18.4249V18.4247C72.6932 18.2253 72.7724 18.0321 72.9167 17.8869C73.0601 17.7426 73.2566 17.6572 73.4652 17.6511H80.6703C83.1441 17.6511 85.1405 18.2987 86.5084 19.4233C87.8654 20.539 88.6473 22.1583 88.6473 24.211V24.2703C88.6473 26.5095 87.7041 28.1846 86.2049 29.3139C84.6906 30.4547 82.5801 31.0573 80.2484 31.0573H74.7544H74.2544V31.5573V38.2913V38.3138L74.2565 38.3363C74.2659 38.4406 74.2531 38.5458 74.2188 38.6454C74.1845 38.745 74.1293 38.8371 74.0562 38.9156C73.9831 38.9941 73.8937 39.0573 73.7933 39.1008C73.6929 39.1443 73.5841 39.1668 73.4738 39.1668C73.3636 39.1668 73.2548 39.1443 73.1544 39.1008C73.054 39.0573 72.9646 38.9941 72.8914 38.9156C72.8183 38.8371 72.7631 38.745 72.7289 38.6454C72.6946 38.5458 72.6818 38.4406 72.6912 38.3363L72.6933 38.3138V38.2913V18.4249ZM80.3453 29.7863V29.7863H80.3489C82.3054 29.7863 83.9761 29.2707 85.169 28.3195C86.3719 27.3603 87.056 25.982 87.056 24.3493V24.29C87.056 22.5587 86.3891 21.1992 85.1992 20.2868C84.0275 19.3883 82.4002 18.9616 80.5297 18.9616H74.8047H74.3047V19.4616V29.2468V29.7432L74.8011 29.7468L80.3453 29.7863Z" fill="white"/>
<path d="M72.6933 18.4249V18.4247C72.6932 18.2253 72.7724 18.0321 72.9167 17.8869C73.0601 17.7426 73.2566 17.6572 73.4652 17.6511H80.6703C83.1441 17.6511 85.1405 18.2987 86.5084 19.4233C87.8654 20.539 88.6473 22.1583 88.6473 24.211V24.2703C88.6473 26.5095 87.7041 28.1846 86.2049 29.3139C84.6906 30.4547 82.5801 31.0573 80.2484 31.0573H74.7544H74.2544V31.5573V38.2913V38.3138L74.2565 38.3363C74.2659 38.4406 74.2531 38.5458 74.2188 38.6454C74.1845 38.745 74.1293 38.8371 74.0562 38.9156C73.9831 38.9941 73.8937 39.0573 73.7933 39.1008C73.6929 39.1443 73.5841 39.1668 73.4738 39.1668C73.3636 39.1668 73.2548 39.1443 73.1544 39.1008C73.054 39.0573 72.9646 38.9941 72.8914 38.9156C72.8183 38.8371 72.7631 38.745 72.7289 38.6454C72.6946 38.5458 72.6818 38.4406 72.6912 38.3363L72.6933 38.3138V38.2913V18.4249ZM80.3453 29.7863V29.7863H80.3489C82.3054 29.7863 83.9761 29.2707 85.169 28.3195C86.3719 27.3603 87.056 25.982 87.056 24.3493V24.29C87.056 22.5587 86.3891 21.1992 85.1992 20.2868C84.0275 19.3883 82.4002 18.9616 80.5297 18.9616H74.8047H74.3047V19.4616V29.2468V29.7432L74.8011 29.7468L80.3453 29.7863Z" stroke="black"/>
<path d="M72.6933 18.4249V18.4247C72.6932 18.2253 72.7724 18.0321 72.9167 17.8869C73.0601 17.7426 73.2566 17.6572 73.4652 17.6511H80.6703C83.1441 17.6511 85.1405 18.2987 86.5084 19.4233C87.8654 20.539 88.6473 22.1583 88.6473 24.211V24.2703C88.6473 26.5095 87.7041 28.1846 86.2049 29.3139C84.6906 30.4547 82.5801 31.0573 80.2484 31.0573H74.7544H74.2544V31.5573V38.2913V38.3138L74.2565 38.3363C74.2659 38.4406 74.2531 38.5458 74.2188 38.6454C74.1845 38.745 74.1293 38.8371 74.0562 38.9156C73.9831 38.9941 73.8937 39.0573 73.7933 39.1008C73.6929 39.1443 73.5841 39.1668 73.4738 39.1668C73.3636 39.1668 73.2548 39.1443 73.1544 39.1008C73.054 39.0573 72.9646 38.9941 72.8914 38.9156C72.8183 38.8371 72.7631 38.745 72.7289 38.6454C72.6946 38.5458 72.6818 38.4406 72.6912 38.3363L72.6933 38.3138V38.2913V18.4249ZM80.3453 29.7863V29.7863H80.3489C82.3054 29.7863 83.9761 29.2707 85.169 28.3195C86.3719 27.3603 87.056 25.982 87.056 24.3493V24.29C87.056 22.5587 86.3891 21.1992 85.1992 20.2868C84.0275 19.3883 82.4002 18.9616 80.5297 18.9616H74.8047H74.3047V19.4616V29.2468V29.7432L74.8011 29.7468L80.3453 29.7863Z" stroke="url(#paint0_linear)"/>
<path d="M94.5186 18.2669V18.2444L94.5166 18.222C94.5071 18.1176 94.5199 18.0124 94.5542 17.9128C94.5885 17.8133 94.6437 17.7212 94.7168 17.6427C94.7899 17.5641 94.8793 17.5009 94.9797 17.4574C95.0801 17.414 95.1889 17.3914 95.2992 17.3914C95.4094 17.3914 95.5183 17.414 95.6186 17.4574C95.719 17.5009 95.8085 17.5641 95.8816 17.6427L96.2475 17.302L95.8816 17.6427C95.9547 17.7212 96.0099 17.8133 96.0441 17.9128C96.0784 18.0124 96.0912 18.1176 96.0818 18.222L96.0798 18.2444V18.2669V38.2913V38.3138L96.0818 38.3362C96.0912 38.4406 96.0784 38.5458 96.0441 38.6454C96.0099 38.745 95.9547 38.8371 95.8816 38.9156C95.8085 38.9941 95.719 39.0573 95.6186 39.1008C95.5183 39.1442 95.4094 39.1668 95.2992 39.1668C95.1889 39.1668 95.0801 39.1442 94.9797 39.1008C94.8793 39.0573 94.7899 38.9941 94.7168 38.9156C94.6437 38.8371 94.5885 38.745 94.5542 38.6454C94.5199 38.5458 94.5071 38.4406 94.5166 38.3362L94.5186 38.3138V38.2913V18.2669Z" fill="white"/>
<path d="M94.5186 18.2669V18.2444L94.5166 18.222C94.5071 18.1176 94.5199 18.0124 94.5542 17.9128C94.5885 17.8133 94.6437 17.7212 94.7168 17.6427C94.7899 17.5641 94.8793 17.5009 94.9797 17.4574C95.0801 17.414 95.1889 17.3914 95.2992 17.3914C95.4094 17.3914 95.5183 17.414 95.6186 17.4574C95.719 17.5009 95.8085 17.5641 95.8816 17.6427L96.2475 17.302L95.8816 17.6427C95.9547 17.7212 96.0099 17.8133 96.0441 17.9128C96.0784 18.0124 96.0912 18.1176 96.0818 18.222L96.0798 18.2444V18.2669V38.2913V38.3138L96.0818 38.3362C96.0912 38.4406 96.0784 38.5458 96.0441 38.6454C96.0099 38.745 95.9547 38.8371 95.8816 38.9156C95.8085 38.9941 95.719 39.0573 95.6186 39.1008C95.5183 39.1442 95.4094 39.1668 95.2992 39.1668C95.1889 39.1668 95.0801 39.1442 94.9797 39.1008C94.8793 39.0573 94.7899 38.9941 94.7168 38.9156C94.6437 38.8371 94.5885 38.745 94.5542 38.6454C94.5199 38.5458 94.5071 38.4406 94.5166 38.3362L94.5186 38.3138V38.2913V18.2669Z" stroke="black"/>
<path d="M94.5186 18.2669V18.2444L94.5166 18.222C94.5071 18.1176 94.5199 18.0124 94.5542 17.9128C94.5885 17.8133 94.6437 17.7212 94.7168 17.6427C94.7899 17.5641 94.8793 17.5009 94.9797 17.4574C95.0801 17.414 95.1889 17.3914 95.2992 17.3914C95.4094 17.3914 95.5183 17.414 95.6186 17.4574C95.719 17.5009 95.8085 17.5641 95.8816 17.6427L96.2475 17.302L95.8816 17.6427C95.9547 17.7212 96.0099 17.8133 96.0441 17.9128C96.0784 18.0124 96.0912 18.1176 96.0818 18.222L96.0798 18.2444V18.2669V38.2913V38.3138L96.0818 38.3362C96.0912 38.4406 96.0784 38.5458 96.0441 38.6454C96.0099 38.745 95.9547 38.8371 95.8816 38.9156C95.8085 38.9941 95.719 39.0573 95.6186 39.1008C95.5183 39.1442 95.4094 39.1668 95.2992 39.1668C95.1889 39.1668 95.0801 39.1442 94.9797 39.1008C94.8793 39.0573 94.7899 38.9941 94.7168 38.9156C94.6437 38.8371 94.5885 38.745 94.5542 38.6454C94.5199 38.5458 94.5071 38.4406 94.5166 38.3362L94.5186 38.3138V38.2913V18.2669Z" stroke="url(#paint1_linear)"/>
<path d="M103.739 18.2965V18.0839C103.777 17.9733 103.841 17.8713 103.928 17.7867C104.07 17.6474 104.264 17.5662 104.468 17.5623H104.81C104.987 17.5666 105.16 17.6142 105.313 17.7004C105.467 17.7873 105.595 17.9103 105.687 18.0574L105.702 18.0821L105.721 18.1048L119.471 35.3349L120.362 36.4512V35.0231V18.2373C120.362 18.0479 120.438 17.8646 120.577 17.7281C120.716 17.5912 120.907 17.5129 121.107 17.5129C121.307 17.5129 121.498 17.5912 121.637 17.7281L121.985 17.3741L121.637 17.7281C121.776 17.8646 121.852 18.0479 121.852 18.2373V38.3308V38.3398L121.853 38.3488C121.856 38.4324 121.841 38.516 121.81 38.5945C121.779 38.673 121.732 38.7451 121.671 38.8061C121.61 38.8671 121.537 38.9157 121.455 38.9486C121.373 38.9814 121.285 38.9976 121.196 38.9961L121.196 38.996H121.187H121.075C120.89 38.9811 120.711 38.9252 120.552 38.8328C120.389 38.7379 120.251 38.6072 120.149 38.4518L120.136 38.4323L120.122 38.4141L106.06 20.7791L105.17 19.6618V21.0908V38.3289C105.168 38.516 105.094 38.6971 104.959 38.8346C104.828 38.9691 104.649 39.0519 104.457 39.0647C104.263 39.0577 104.081 38.9779 103.948 38.8438C103.811 38.7064 103.737 38.5234 103.739 38.335H103.739V38.3308V18.2965Z" fill="white"/>
<path d="M103.739 18.2965V18.0839C103.777 17.9733 103.841 17.8713 103.928 17.7867C104.07 17.6474 104.264 17.5662 104.468 17.5623H104.81C104.987 17.5666 105.16 17.6142 105.313 17.7004C105.467 17.7873 105.595 17.9103 105.687 18.0574L105.702 18.0821L105.721 18.1048L119.471 35.3349L120.362 36.4512V35.0231V18.2373C120.362 18.0479 120.438 17.8646 120.577 17.7281C120.716 17.5912 120.907 17.5129 121.107 17.5129C121.307 17.5129 121.498 17.5912 121.637 17.7281L121.985 17.3741L121.637 17.7281C121.776 17.8646 121.852 18.0479 121.852 18.2373V38.3308V38.3398L121.853 38.3488C121.856 38.4324 121.841 38.516 121.81 38.5945C121.779 38.673 121.732 38.7451 121.671 38.8061C121.61 38.8671 121.537 38.9157 121.455 38.9486C121.373 38.9814 121.285 38.9976 121.196 38.9961L121.196 38.996H121.187H121.075C120.89 38.9811 120.711 38.9252 120.552 38.8328C120.389 38.7379 120.251 38.6072 120.149 38.4518L120.136 38.4323L120.122 38.4141L106.06 20.7791L105.17 19.6618V21.0908V38.3289C105.168 38.516 105.094 38.6971 104.959 38.8346C104.828 38.9691 104.649 39.0519 104.457 39.0647C104.263 39.0577 104.081 38.9779 103.948 38.8438C103.811 38.7064 103.737 38.5234 103.739 38.335H103.739V38.3308V18.2965Z" stroke="black"/>
<path d="M103.739 18.2965V18.0839C103.777 17.9733 103.841 17.8713 103.928 17.7867C104.07 17.6474 104.264 17.5662 104.468 17.5623H104.81C104.987 17.5666 105.16 17.6142 105.313 17.7004C105.467 17.7873 105.595 17.9103 105.687 18.0574L105.702 18.0821L105.721 18.1048L119.471 35.3349L120.362 36.4512V35.0231V18.2373C120.362 18.0479 120.438 17.8646 120.577 17.7281C120.716 17.5912 120.907 17.5129 121.107 17.5129C121.307 17.5129 121.498 17.5912 121.637 17.7281L121.985 17.3741L121.637 17.7281C121.776 17.8646 121.852 18.0479 121.852 18.2373V38.3308V38.3398L121.853 38.3488C121.856 38.4324 121.841 38.516 121.81 38.5945C121.779 38.673 121.732 38.7451 121.671 38.8061C121.61 38.8671 121.537 38.9157 121.455 38.9486C121.373 38.9814 121.285 38.9976 121.196 38.9961L121.196 38.996H121.187H121.075C120.89 38.9811 120.711 38.9252 120.552 38.8328C120.389 38.7379 120.251 38.6072 120.149 38.4518L120.136 38.4323L120.122 38.4141L106.06 20.7791L105.17 19.6618V21.0908V38.3289C105.168 38.516 105.094 38.6971 104.959 38.8346C104.828 38.9691 104.649 39.0519 104.457 39.0647C104.263 39.0577 104.081 38.9779 103.948 38.8438C103.811 38.7064 103.737 38.5234 103.739 38.335H103.739V38.3308V18.2965Z" stroke="url(#paint2_linear)"/>
<path d="M129.25 18.2669V18.0065C129.257 17.9748 129.265 17.9436 129.276 17.9128C129.31 17.8133 129.365 17.7212 129.438 17.6427C129.512 17.5641 129.601 17.5009 129.701 17.4574C129.802 17.414 129.911 17.3914 130.021 17.3914C130.131 17.3914 130.24 17.414 130.34 17.4574C130.441 17.5009 130.53 17.5641 130.603 17.6427L130.969 17.302L130.603 17.6427C130.676 17.7212 130.732 17.8133 130.766 17.9128C130.8 18.0124 130.813 18.1176 130.803 18.222L130.801 18.2444V18.2669V30.4415V31.6558L131.656 30.7936L144.553 17.7896L144.554 17.788C144.724 17.615 144.956 17.5094 145.203 17.4938C145.399 17.5061 145.582 17.5893 145.717 17.7255L146.071 17.374L145.717 17.7255C145.853 17.8625 145.931 18.0428 145.937 18.2305C145.931 18.3266 145.907 18.4209 145.865 18.5087C145.822 18.6008 145.76 18.6841 145.682 18.7535L145.674 18.7604L145.667 18.7676L137.632 26.5878L137.301 26.9102L137.596 27.2658L146.264 37.6927L146.264 37.6928L146.273 37.703C146.419 37.869 146.498 38.0792 146.5 38.2956C146.497 38.3972 146.474 38.4974 146.432 38.5909C146.389 38.6861 146.327 38.7726 146.249 38.8451L146.59 39.2109L146.249 38.8451C146.171 38.9177 146.079 38.9748 145.978 39.0127C145.877 39.0504 145.77 39.0683 145.662 39.0654C145.54 39.0601 145.422 39.026 145.318 38.9665C145.212 38.9066 145.125 38.8229 145.061 38.7234L145.045 38.6988L145.027 38.6762L136.57 28.3184L136.223 27.8936L135.832 28.278L130.951 33.0768L130.801 33.2237V33.4333V38.2716C130.801 38.3694 130.782 38.4665 130.744 38.5573C130.705 38.6482 130.649 38.7313 130.577 38.8017L130.919 39.149L130.577 38.8017C130.506 38.8722 130.42 38.9285 130.325 38.9671C130.231 39.0056 130.129 39.0256 130.026 39.0256C129.923 39.0256 129.821 39.0056 129.726 38.9671C129.632 38.9285 129.546 38.8722 129.474 38.8017C129.403 38.7313 129.346 38.6482 129.308 38.5573C129.27 38.4665 129.25 38.3694 129.25 38.2716V18.2669Z" fill="white"/>
<path d="M129.25 18.2669V18.0065C129.257 17.9748 129.265 17.9436 129.276 17.9128C129.31 17.8133 129.365 17.7212 129.438 17.6427C129.512 17.5641 129.601 17.5009 129.701 17.4574C129.802 17.414 129.911 17.3914 130.021 17.3914C130.131 17.3914 130.24 17.414 130.34 17.4574C130.441 17.5009 130.53 17.5641 130.603 17.6427L130.969 17.302L130.603 17.6427C130.676 17.7212 130.732 17.8133 130.766 17.9128C130.8 18.0124 130.813 18.1176 130.803 18.222L130.801 18.2444V18.2669V30.4415V31.6558L131.656 30.7936L144.553 17.7896L144.554 17.788C144.724 17.615 144.956 17.5094 145.203 17.4938C145.399 17.5061 145.582 17.5893 145.717 17.7255L146.071 17.374L145.717 17.7255C145.853 17.8625 145.931 18.0428 145.937 18.2305C145.931 18.3266 145.907 18.4209 145.865 18.5087C145.822 18.6008 145.76 18.6841 145.682 18.7535L145.674 18.7604L145.667 18.7676L137.632 26.5878L137.301 26.9102L137.596 27.2658L146.264 37.6927L146.264 37.6928L146.273 37.703C146.419 37.869 146.498 38.0792 146.5 38.2956C146.497 38.3972 146.474 38.4974 146.432 38.5909C146.389 38.6861 146.327 38.7726 146.249 38.8451L146.59 39.2109L146.249 38.8451C146.171 38.9177 146.079 38.9748 145.978 39.0127C145.877 39.0504 145.77 39.0683 145.662 39.0654C145.54 39.0601 145.422 39.026 145.318 38.9665C145.212 38.9066 145.125 38.8229 145.061 38.7234L145.045 38.6988L145.027 38.6762L136.57 28.3184L136.223 27.8936L135.832 28.278L130.951 33.0768L130.801 33.2237V33.4333V38.2716C130.801 38.3694 130.782 38.4665 130.744 38.5573C130.705 38.6482 130.649 38.7313 130.577 38.8017L130.919 39.149L130.577 38.8017C130.506 38.8722 130.42 38.9285 130.325 38.9671C130.231 39.0056 130.129 39.0256 130.026 39.0256C129.923 39.0256 129.821 39.0056 129.726 38.9671C129.632 38.9285 129.546 38.8722 129.474 38.8017C129.403 38.7313 129.346 38.6482 129.308 38.5573C129.27 38.4665 129.25 38.3694 129.25 38.2716V18.2669Z" stroke="black"/>
<path d="M129.25 18.2669V18.0065C129.257 17.9748 129.265 17.9436 129.276 17.9128C129.31 17.8133 129.365 17.7212 129.438 17.6427C129.512 17.5641 129.601 17.5009 129.701 17.4574C129.802 17.414 129.911 17.3914 130.021 17.3914C130.131 17.3914 130.24 17.414 130.34 17.4574C130.441 17.5009 130.53 17.5641 130.603 17.6427L130.969 17.302L130.603 17.6427C130.676 17.7212 130.732 17.8133 130.766 17.9128C130.8 18.0124 130.813 18.1176 130.803 18.222L130.801 18.2444V18.2669V30.4415V31.6558L131.656 30.7936L144.553 17.7896L144.554 17.788C144.724 17.615 144.956 17.5094 145.203 17.4938C145.399 17.5061 145.582 17.5893 145.717 17.7255L146.071 17.374L145.717 17.7255C145.853 17.8625 145.931 18.0428 145.937 18.2305C145.931 18.3266 145.907 18.4209 145.865 18.5087C145.822 18.6008 145.76 18.6841 145.682 18.7535L145.674 18.7604L145.667 18.7676L137.632 26.5878L137.301 26.9102L137.596 27.2658L146.264 37.6927L146.264 37.6928L146.273 37.703C146.419 37.869 146.498 38.0792 146.5 38.2956C146.497 38.3972 146.474 38.4974 146.432 38.5909C146.389 38.6861 146.327 38.7726 146.249 38.8451L146.59 39.2109L146.249 38.8451C146.171 38.9177 146.079 38.9748 145.978 39.0127C145.877 39.0504 145.77 39.0683 145.662 39.0654C145.54 39.0601 145.422 39.026 145.318 38.9665C145.212 38.9066 145.125 38.8229 145.061 38.7234L145.045 38.6988L145.027 38.6762L136.57 28.3184L136.223 27.8936L135.832 28.278L130.951 33.0768L130.801 33.2237V33.4333V38.2716C130.801 38.3694 130.782 38.4665 130.744 38.5573C130.705 38.6482 130.649 38.7313 130.577 38.8017L130.919 39.149L130.577 38.8017C130.506 38.8722 130.42 38.9285 130.325 38.9671C130.231 39.0056 130.129 39.0256 130.026 39.0256C129.923 39.0256 129.821 39.0056 129.726 38.9671C129.632 38.9285 129.546 38.8722 129.474 38.8017C129.403 38.7313 129.346 38.6482 129.308 38.5573C129.27 38.4665 129.25 38.3694 129.25 38.2716V18.2669Z" stroke="url(#paint3_linear)"/>
<path d="M96.0156 9.05636C96.2969 9.33214 96.614 9.564 96.9561 9.74764C96.6135 9.93217 96.296 10.165 96.0145 10.4418C95.7273 10.7241 95.4862 11.0436 95.2962 11.3891C95.1071 11.0441 94.867 10.7249 94.5809 10.4428C94.2997 10.1656 93.9823 9.93242 93.6398 9.74764C93.9818 9.56375 94.2988 9.33152 94.5798 9.05527C94.8664 8.77352 95.1069 8.45446 95.2962 8.10955C95.4865 8.45496 95.728 8.77438 96.0156 9.05636Z" fill="#D22856"/>
<path d="M96.0156 9.05636C96.2969 9.33214 96.614 9.564 96.9561 9.74764C96.6135 9.93217 96.296 10.165 96.0145 10.4418C95.7273 10.7241 95.4862 11.0436 95.2962 11.3891C95.1071 11.0441 94.867 10.7249 94.5809 10.4428C94.2997 10.1656 93.9823 9.93242 93.6398 9.74764C93.9818 9.56375 94.2988 9.33152 94.5798 9.05527C94.8664 8.77352 95.1069 8.45446 95.2962 8.10955C95.4865 8.45496 95.728 8.77438 96.0156 9.05636Z" stroke="black"/>
<path d="M96.0156 9.05636C96.2969 9.33214 96.614 9.564 96.9561 9.74764C96.6135 9.93217 96.296 10.165 96.0145 10.4418C95.7273 10.7241 95.4862 11.0436 95.2962 11.3891C95.1071 11.0441 94.867 10.7249 94.5809 10.4428C94.2997 10.1656 93.9823 9.93242 93.6398 9.74764C93.9818 9.56375 94.2988 9.33152 94.5798 9.05527C94.8664 8.77352 95.1069 8.45446 95.2962 8.10955C95.4865 8.45496 95.728 8.77438 96.0156 9.05636Z" stroke="url(#paint4_linear)"/>
<path d="M39.4273 17.2196C39.577 17.3142 39.7172 17.4249 39.8452 17.5507C40.2231 17.9223 40.4693 18.4011 40.5521 18.9161C41.2791 18.7124 42.0287 18.5963 42.7844 18.5705C42.5051 18.4288 42.1946 18.3537 41.8785 18.3522L39.4273 17.2196ZM39.4273 17.2196C39.5226 17.1861 39.6183 17.1539 39.7144 17.1229L39.4273 17.2196Z" fill="white"/>
<path d="M39.4273 17.2196C39.577 17.3142 39.7172 17.4249 39.8452 17.5507C40.2231 17.9223 40.4693 18.4011 40.5521 18.9161C41.2791 18.7124 42.0287 18.5963 42.7844 18.5705C42.5051 18.4288 42.1946 18.3537 41.8785 18.3522L39.4273 17.2196ZM39.4273 17.2196C39.5226 17.1861 39.6183 17.1539 39.7144 17.1229L39.4273 17.2196Z" stroke="black"/>
<path d="M39.4273 17.2196C39.577 17.3142 39.7172 17.4249 39.8452 17.5507C40.2231 17.9223 40.4693 18.4011 40.5521 18.9161C41.2791 18.7124 42.0287 18.5963 42.7844 18.5705C42.5051 18.4288 42.1946 18.3537 41.8785 18.3522L39.4273 17.2196ZM39.4273 17.2196C39.5226 17.1861 39.6183 17.1539 39.7144 17.1229L39.4273 17.2196Z" stroke="url(#paint5_linear)"/>
<path d="M60.2477 27.7668L60.2528 27.7871L60.2594 27.8069C60.306 27.9451 60.3172 28.0922 60.2921 28.2354C60.267 28.3786 60.2063 28.5142 60.1145 28.63C60.0227 28.746 59.9026 28.8387 59.7643 28.8992C59.6259 28.9597 59.4741 28.9859 59.3223 28.9751L59.3046 28.9739H59.2869H55.2694H54.8232L54.7726 29.4171C54.456 32.1878 53.112 34.7486 50.9947 36.6093C48.8773 38.4701 46.1352 39.5 43.2921 39.5C40.4489 39.5 37.7068 38.4701 35.5894 36.6093C33.4722 34.7486 32.1281 32.1878 31.8115 29.4171L31.7609 28.9739H31.3147H29.4868H29.046L28.9907 29.4112C28.6428 32.1636 27.2806 34.697 25.1593 36.5312C23.0379 38.3657 20.3046 39.3733 17.4764 39.3613L17.4739 39.3613C14.9161 39.3634 12.4356 38.5252 10.4237 36.9869C10.4799 36.7834 10.5096 36.5731 10.5117 36.361V36.356C10.5117 36.2955 10.5359 36.2357 10.5817 36.1901C10.6275 36.1444 10.6915 36.1167 10.7603 36.1155C11.2242 36.1124 11.6761 35.9825 12.0669 35.7432C13.6752 36.8074 15.5771 37.3657 17.5196 37.3399C20.0402 37.323 22.4545 36.3312 24.2394 34.5764C26.0251 32.821 27.0373 30.4429 27.0539 27.9566H27.054L27.0539 27.9506C27.0511 27.4282 27.0053 26.907 26.9169 26.392C26.5759 24.1689 25.4354 22.1415 23.705 20.6769C21.9736 19.2115 19.7663 18.4066 17.4843 18.4066C15.2024 18.4066 12.9951 19.2115 11.2637 20.6769C9.53325 22.1414 8.39285 24.1689 8.05176 26.392C7.9634 26.907 7.91757 27.4282 7.91474 27.9506H7.91469L7.91475 27.9577C7.91613 28.1126 7.92135 28.2674 7.93043 28.422C7.29396 28.4401 6.6859 28.6965 6.23199 29.1428C6.15185 29.2216 6.07764 29.3052 6.00965 29.3929C6.00898 29.3879 6.00831 29.3829 6.00764 29.3779L5.94961 28.9443H5.51206H1.49451H1.48274L1.47097 28.9448C1.32192 28.9518 1.17359 28.9237 1.03848 28.863C0.903415 28.8023 0.785927 28.7112 0.69534 28.5978C0.604789 28.4845 0.543638 28.3523 0.516298 28.2122C0.488962 28.0722 0.496079 27.9278 0.537156 27.7908L0.540708 27.779L0.543671 27.767L5.74639 6.68601L5.75163 6.66479L5.755 6.64319C6.08903 4.49957 8.18071 0.5 13.8987 0.5C14.1684 0.5 14.4253 0.605401 14.6135 0.790359C14.8013 0.975034 14.9053 1.22367 14.9053 1.4811C14.9053 1.73852 14.8013 1.98716 14.6135 2.17184C14.4253 2.3568 14.1684 2.4622 13.8987 2.4622C11.3267 2.4622 9.7832 3.44741 8.8842 4.5359C8.02962 5.57061 7.79122 6.65591 7.74328 6.95149L2.9575 26.4021L2.80508 27.0215H3.44302H5.5221H5.96996L6.01908 26.5764C6.32578 23.7971 7.66618 21.2254 9.78541 19.3558C11.9049 17.486 14.6537 16.4507 17.5044 16.4507C20.3551 16.4507 23.104 17.486 25.2235 19.3558C27.3427 21.2254 28.6831 23.7971 28.9898 26.5764L29.0389 27.0215H29.4868H31.3549H31.7984L31.8514 26.5812C32.0066 25.2894 32.3895 24.0369 32.9803 22.879C33.094 23.2047 33.2762 23.5059 33.5182 23.7617C33.7918 24.051 34.1288 24.2684 34.499 24.4004C34.0241 25.537 33.7718 26.754 33.7576 27.987L33.7575 27.987L33.7576 27.9989C33.764 28.5212 33.8133 29.0421 33.9051 29.5565C34.2537 31.7722 35.3965 33.7906 37.1249 35.248C38.8544 36.7063 41.0564 37.507 43.3322 37.507C45.6081 37.507 47.81 36.7063 49.5396 35.248C51.2679 33.7906 52.4108 31.7723 52.7594 29.5566C52.8512 29.0421 52.9005 28.5212 52.9068 27.9989L52.907 27.9989L52.9068 27.9859C52.8855 26.4485 52.4891 24.939 51.7513 23.5845C51.0562 22.3083 50.0774 21.2051 48.8899 20.3559C48.8898 20.3527 48.8896 20.3496 48.8894 20.3464C48.8929 19.9665 49.0087 19.5951 49.2237 19.2773C49.3942 19.0253 49.6214 18.8156 49.8872 18.6639C51.1777 19.5456 52.272 20.6772 53.1025 21.9896C53.9825 23.3803 54.5455 24.9413 54.7533 26.5653L54.8092 27.0018H55.2493H57.3484H57.9862L57.834 26.3825L53.0571 6.94683C53.0085 6.67514 52.7801 5.58086 51.9218 4.53679C51.026 3.44707 49.4843 2.4622 46.9028 2.4622C46.6331 2.4622 46.3762 2.3568 46.188 2.17184C46.0002 1.98716 45.8962 1.73852 45.8962 1.4811C45.8962 1.22368 46.0002 0.975035 46.188 0.79036C46.3762 0.605401 46.6331 0.5 46.9028 0.5C52.6208 0.5 54.7125 4.49957 55.0465 6.64319L55.0499 6.66468L55.0551 6.68579L60.2477 27.7668Z" fill="white"/>
<path d="M60.2477 27.7668L60.2528 27.7871L60.2594 27.8069C60.306 27.9451 60.3172 28.0922 60.2921 28.2354C60.267 28.3786 60.2063 28.5142 60.1145 28.63C60.0227 28.746 59.9026 28.8387 59.7643 28.8992C59.6259 28.9597 59.4741 28.9859 59.3223 28.9751L59.3046 28.9739H59.2869H55.2694H54.8232L54.7726 29.4171C54.456 32.1878 53.112 34.7486 50.9947 36.6093C48.8773 38.4701 46.1352 39.5 43.2921 39.5C40.4489 39.5 37.7068 38.4701 35.5894 36.6093C33.4722 34.7486 32.1281 32.1878 31.8115 29.4171L31.7609 28.9739H31.3147H29.4868H29.046L28.9907 29.4112C28.6428 32.1636 27.2806 34.697 25.1593 36.5312C23.0379 38.3657 20.3046 39.3733 17.4764 39.3613L17.4739 39.3613C14.9161 39.3634 12.4356 38.5252 10.4237 36.9869C10.4799 36.7834 10.5096 36.5731 10.5117 36.361V36.356C10.5117 36.2955 10.5359 36.2357 10.5817 36.1901C10.6275 36.1444 10.6915 36.1167 10.7603 36.1155C11.2242 36.1124 11.6761 35.9825 12.0669 35.7432C13.6752 36.8074 15.5771 37.3657 17.5196 37.3399C20.0402 37.323 22.4545 36.3312 24.2394 34.5764C26.0251 32.821 27.0373 30.4429 27.0539 27.9566H27.054L27.0539 27.9506C27.0511 27.4282 27.0053 26.907 26.9169 26.392C26.5759 24.1689 25.4354 22.1415 23.705 20.6769C21.9736 19.2115 19.7663 18.4066 17.4843 18.4066C15.2024 18.4066 12.9951 19.2115 11.2637 20.6769C9.53325 22.1414 8.39285 24.1689 8.05176 26.392C7.9634 26.907 7.91757 27.4282 7.91474 27.9506H7.91469L7.91475 27.9577C7.91613 28.1126 7.92135 28.2674 7.93043 28.422C7.29396 28.4401 6.6859 28.6965 6.23199 29.1428C6.15185 29.2216 6.07764 29.3052 6.00965 29.3929C6.00898 29.3879 6.00831 29.3829 6.00764 29.3779L5.94961 28.9443H5.51206H1.49451H1.48274L1.47097 28.9448C1.32192 28.9518 1.17359 28.9237 1.03848 28.863C0.903415 28.8023 0.785927 28.7112 0.69534 28.5978C0.604789 28.4845 0.543638 28.3523 0.516298 28.2122C0.488962 28.0722 0.496079 27.9278 0.537156 27.7908L0.540708 27.779L0.543671 27.767L5.74639 6.68601L5.75163 6.66479L5.755 6.64319C6.08903 4.49957 8.18071 0.5 13.8987 0.5C14.1684 0.5 14.4253 0.605401 14.6135 0.790359C14.8013 0.975034 14.9053 1.22367 14.9053 1.4811C14.9053 1.73852 14.8013 1.98716 14.6135 2.17184C14.4253 2.3568 14.1684 2.4622 13.8987 2.4622C11.3267 2.4622 9.7832 3.44741 8.8842 4.5359C8.02962 5.57061 7.79122 6.65591 7.74328 6.95149L2.9575 26.4021L2.80508 27.0215H3.44302H5.5221H5.96996L6.01908 26.5764C6.32578 23.7971 7.66618 21.2254 9.78541 19.3558C11.9049 17.486 14.6537 16.4507 17.5044 16.4507C20.3551 16.4507 23.104 17.486 25.2235 19.3558C27.3427 21.2254 28.6831 23.7971 28.9898 26.5764L29.0389 27.0215H29.4868H31.3549H31.7984L31.8514 26.5812C32.0066 25.2894 32.3895 24.0369 32.9803 22.879C33.094 23.2047 33.2762 23.5059 33.5182 23.7617C33.7918 24.051 34.1288 24.2684 34.499 24.4004C34.0241 25.537 33.7718 26.754 33.7576 27.987L33.7575 27.987L33.7576 27.9989C33.764 28.5212 33.8133 29.0421 33.9051 29.5565C34.2537 31.7722 35.3965 33.7906 37.1249 35.248C38.8544 36.7063 41.0564 37.507 43.3322 37.507C45.6081 37.507 47.81 36.7063 49.5396 35.248C51.2679 33.7906 52.4108 31.7723 52.7594 29.5566C52.8512 29.0421 52.9005 28.5212 52.9068 27.9989L52.907 27.9989L52.9068 27.9859C52.8855 26.4485 52.4891 24.939 51.7513 23.5845C51.0562 22.3083 50.0774 21.2051 48.8899 20.3559C48.8898 20.3527 48.8896 20.3496 48.8894 20.3464C48.8929 19.9665 49.0087 19.5951 49.2237 19.2773C49.3942 19.0253 49.6214 18.8156 49.8872 18.6639C51.1777 19.5456 52.272 20.6772 53.1025 21.9896C53.9825 23.3803 54.5455 24.9413 54.7533 26.5653L54.8092 27.0018H55.2493H57.3484H57.9862L57.834 26.3825L53.0571 6.94683C53.0085 6.67514 52.7801 5.58086 51.9218 4.53679C51.026 3.44707 49.4843 2.4622 46.9028 2.4622C46.6331 2.4622 46.3762 2.3568 46.188 2.17184C46.0002 1.98716 45.8962 1.73852 45.8962 1.4811C45.8962 1.22368 46.0002 0.975035 46.188 0.79036C46.3762 0.605401 46.6331 0.5 46.9028 0.5C52.6208 0.5 54.7125 4.49957 55.0465 6.64319L55.0499 6.66468L55.0551 6.68579L60.2477 27.7668Z" stroke="black"/>
<path d="M60.2477 27.7668L60.2528 27.7871L60.2594 27.8069C60.306 27.9451 60.3172 28.0922 60.2921 28.2354C60.267 28.3786 60.2063 28.5142 60.1145 28.63C60.0227 28.746 59.9026 28.8387 59.7643 28.8992C59.6259 28.9597 59.4741 28.9859 59.3223 28.9751L59.3046 28.9739H59.2869H55.2694H54.8232L54.7726 29.4171C54.456 32.1878 53.112 34.7486 50.9947 36.6093C48.8773 38.4701 46.1352 39.5 43.2921 39.5C40.4489 39.5 37.7068 38.4701 35.5894 36.6093C33.4722 34.7486 32.1281 32.1878 31.8115 29.4171L31.7609 28.9739H31.3147H29.4868H29.046L28.9907 29.4112C28.6428 32.1636 27.2806 34.697 25.1593 36.5312C23.0379 38.3657 20.3046 39.3733 17.4764 39.3613L17.4739 39.3613C14.9161 39.3634 12.4356 38.5252 10.4237 36.9869C10.4799 36.7834 10.5096 36.5731 10.5117 36.361V36.356C10.5117 36.2955 10.5359 36.2357 10.5817 36.1901C10.6275 36.1444 10.6915 36.1167 10.7603 36.1155C11.2242 36.1124 11.6761 35.9825 12.0669 35.7432C13.6752 36.8074 15.5771 37.3657 17.5196 37.3399C20.0402 37.323 22.4545 36.3312 24.2394 34.5764C26.0251 32.821 27.0373 30.4429 27.0539 27.9566H27.054L27.0539 27.9506C27.0511 27.4282 27.0053 26.907 26.9169 26.392C26.5759 24.1689 25.4354 22.1415 23.705 20.6769C21.9736 19.2115 19.7663 18.4066 17.4843 18.4066C15.2024 18.4066 12.9951 19.2115 11.2637 20.6769C9.53325 22.1414 8.39285 24.1689 8.05176 26.392C7.9634 26.907 7.91757 27.4282 7.91474 27.9506H7.91469L7.91475 27.9577C7.91613 28.1126 7.92135 28.2674 7.93043 28.422C7.29396 28.4401 6.6859 28.6965 6.23199 29.1428C6.15185 29.2216 6.07764 29.3052 6.00965 29.3929C6.00898 29.3879 6.00831 29.3829 6.00764 29.3779L5.94961 28.9443H5.51206H1.49451H1.48274L1.47097 28.9448C1.32192 28.9518 1.17359 28.9237 1.03848 28.863C0.903415 28.8023 0.785927 28.7112 0.69534 28.5978C0.604789 28.4845 0.543638 28.3523 0.516298 28.2122C0.488962 28.0722 0.496079 27.9278 0.537156 27.7908L0.540708 27.779L0.543671 27.767L5.74639 6.68601L5.75163 6.66479L5.755 6.64319C6.08903 4.49957 8.18071 0.5 13.8987 0.5C14.1684 0.5 14.4253 0.605401 14.6135 0.790359C14.8013 0.975034 14.9053 1.22367 14.9053 1.4811C14.9053 1.73852 14.8013 1.98716 14.6135 2.17184C14.4253 2.3568 14.1684 2.4622 13.8987 2.4622C11.3267 2.4622 9.7832 3.44741 8.8842 4.5359C8.02962 5.57061 7.79122 6.65591 7.74328 6.95149L2.9575 26.4021L2.80508 27.0215H3.44302H5.5221H5.96996L6.01908 26.5764C6.32578 23.7971 7.66618 21.2254 9.78541 19.3558C11.9049 17.486 14.6537 16.4507 17.5044 16.4507C20.3551 16.4507 23.104 17.486 25.2235 19.3558C27.3427 21.2254 28.6831 23.7971 28.9898 26.5764L29.0389 27.0215H29.4868H31.3549H31.7984L31.8514 26.5812C32.0066 25.2894 32.3895 24.0369 32.9803 22.879C33.094 23.2047 33.2762 23.5059 33.5182 23.7617C33.7918 24.051 34.1288 24.2684 34.499 24.4004C34.0241 25.537 33.7718 26.754 33.7576 27.987L33.7575 27.987L33.7576 27.9989C33.764 28.5212 33.8133 29.0421 33.9051 29.5565C34.2537 31.7722 35.3965 33.7906 37.1249 35.248C38.8544 36.7063 41.0564 37.507 43.3322 37.507C45.6081 37.507 47.81 36.7063 49.5396 35.248C51.2679 33.7906 52.4108 31.7723 52.7594 29.5566C52.8512 29.0421 52.9005 28.5212 52.9068 27.9989L52.907 27.9989L52.9068 27.9859C52.8855 26.4485 52.4891 24.939 51.7513 23.5845C51.0562 22.3083 50.0774 21.2051 48.8899 20.3559C48.8898 20.3527 48.8896 20.3496 48.8894 20.3464C48.8929 19.9665 49.0087 19.5951 49.2237 19.2773C49.3942 19.0253 49.6214 18.8156 49.8872 18.6639C51.1777 19.5456 52.272 20.6772 53.1025 21.9896C53.9825 23.3803 54.5455 24.9413 54.7533 26.5653L54.8092 27.0018H55.2493H57.3484H57.9862L57.834 26.3825L53.0571 6.94683C53.0085 6.67514 52.7801 5.58086 51.9218 4.53679C51.026 3.44707 49.4843 2.4622 46.9028 2.4622C46.6331 2.4622 46.3762 2.3568 46.188 2.17184C46.0002 1.98716 45.8962 1.73852 45.8962 1.4811C45.8962 1.22368 46.0002 0.975035 46.188 0.79036C46.3762 0.605401 46.6331 0.5 46.9028 0.5C52.6208 0.5 54.7125 4.49957 55.0465 6.64319L55.0499 6.66468L55.0551 6.68579L60.2477 27.7668Z" stroke="url(#paint6_linear)"/>
<path d="M46.3987 13.6281C46.6443 14.129 46.9742 14.5858 47.3749 14.9788C47.7671 15.3635 48.2206 15.6809 48.7165 15.9187C48.224 16.1557 47.7695 16.4728 47.3739 16.8617C46.9702 17.2586 46.642 17.7163 46.3987 18.2132C46.1552 17.7174 45.8273 17.2607 45.4244 16.8646C45.0275 16.4744 44.5713 16.1563 44.077 15.9187C44.5708 15.6821 45.0266 15.3651 45.4234 14.9759C45.8268 14.5802 46.155 14.1238 46.3987 13.6281Z" fill="#D22856"/>
<path d="M46.3987 13.6281C46.6443 14.129 46.9742 14.5858 47.3749 14.9788C47.7671 15.3635 48.2206 15.6809 48.7165 15.9187C48.224 16.1557 47.7695 16.4728 47.3739 16.8617C46.9702 17.2586 46.642 17.7163 46.3987 18.2132C46.1552 17.7174 45.8273 17.2607 45.4244 16.8646C45.0275 16.4744 44.5713 16.1563 44.077 15.9187C44.5708 15.6821 45.0266 15.3651 45.4234 14.9759C45.8268 14.5802 46.155 14.1238 46.3987 13.6281Z" stroke="black"/>
<path d="M46.3987 13.6281C46.6443 14.129 46.9742 14.5858 47.3749 14.9788C47.7671 15.3635 48.2206 15.6809 48.7165 15.9187C48.224 16.1557 47.7695 16.4728 47.3739 16.8617C46.9702 17.2586 46.642 17.7163 46.3987 18.2132C46.1552 17.7174 45.8273 17.2607 45.4244 16.8646C45.0275 16.4744 44.5713 16.1563 44.077 15.9187C44.5708 15.6821 45.0266 15.3651 45.4234 14.9759C45.8268 14.5802 46.155 14.1238 46.3987 13.6281Z" stroke="url(#paint7_linear)"/>
<path d="M35.3144 20.3838C35.1849 20.1804 35.0317 19.9906 34.8567 19.8185C34.6868 19.6515 34.5002 19.5049 34.3008 19.3804C34.5007 19.2551 34.6877 19.1077 34.8579 18.9398C35.0315 18.7685 35.1835 18.5799 35.3122 18.378C35.442 18.5816 35.5954 18.7716 35.7707 18.9439C35.9408 19.1111 36.1276 19.2579 36.3272 19.3826C36.1292 19.5064 35.9438 19.6517 35.7749 19.8173C35.5989 19.9897 35.4448 20.1799 35.3144 20.3838Z" fill="#D22856"/>
<path d="M35.3144 20.3838C35.1849 20.1804 35.0317 19.9906 34.8567 19.8185C34.6868 19.6515 34.5002 19.5049 34.3008 19.3804C34.5007 19.2551 34.6877 19.1077 34.8579 18.9398C35.0315 18.7685 35.1835 18.5799 35.3122 18.378C35.442 18.5816 35.5954 18.7716 35.7707 18.9439C35.9408 19.1111 36.1276 19.2579 36.3272 19.3826C36.1292 19.5064 35.9438 19.6517 35.7749 19.8173C35.5989 19.9897 35.4448 20.1799 35.3144 20.3838Z" stroke="black"/>
<path d="M35.3144 20.3838C35.1849 20.1804 35.0317 19.9906 34.8567 19.8185C34.6868 19.6515 34.5002 19.5049 34.3008 19.3804C34.5007 19.2551 34.6877 19.1077 34.8579 18.9398C35.0315 18.7685 35.1835 18.5799 35.3122 18.378C35.442 18.5816 35.5954 18.7716 35.7707 18.9439C35.9408 19.1111 36.1276 19.2579 36.3272 19.3826C36.1292 19.5064 35.9438 19.6517 35.7749 19.8173C35.5989 19.9897 35.4448 20.1799 35.3144 20.3838Z" stroke="url(#paint8_linear)"/>
<path d="M7.5889 33.1978C7.76243 33.0266 7.91444 32.838 8.04314 32.6361C8.1708 32.8364 8.32141 33.0236 8.49321 33.1937C8.6655 33.3643 8.85514 33.5139 9.05801 33.6407C8.85514 33.7675 8.6655 33.9171 8.49321 34.0877C8.32141 34.2578 8.1708 34.445 8.04314 34.6453C7.91444 34.4434 7.76243 34.2548 7.5889 34.0836C7.41769 33.9146 7.22945 33.7665 7.02822 33.6407C7.22945 33.5149 7.41769 33.3668 7.5889 33.1978Z" fill="#D22856"/>
<path d="M7.5889 33.1978C7.76243 33.0266 7.91444 32.838 8.04314 32.6361C8.1708 32.8364 8.32141 33.0236 8.49321 33.1937C8.6655 33.3643 8.85514 33.5139 9.05801 33.6407C8.85514 33.7675 8.6655 33.9171 8.49321 34.0877C8.32141 34.2578 8.1708 34.445 8.04314 34.6453C7.91444 34.4434 7.76243 34.2548 7.5889 34.0836C7.41769 33.9146 7.22945 33.7665 7.02822 33.6407C7.22945 33.5149 7.41769 33.3668 7.5889 33.1978Z" stroke="black"/>
<path d="M7.5889 33.1978C7.76243 33.0266 7.91444 32.838 8.04314 32.6361C8.1708 32.8364 8.32141 33.0236 8.49321 33.1937C8.6655 33.3643 8.85514 33.5139 9.05801 33.6407C8.85514 33.7675 8.6655 33.9171 8.49321 34.0877C8.32141 34.2578 8.1708 34.445 8.04314 34.6453C7.91444 34.4434 7.76243 34.2548 7.5889 34.0836C7.41769 33.9146 7.22945 33.7665 7.02822 33.6407C7.22945 33.5149 7.41769 33.3668 7.5889 33.1978Z" stroke="url(#paint9_linear)"/>
<defs>
<linearGradient id="paint0_linear" x1="80.6678" y1="17.1511" x2="80.6678" y2="39.6668" gradientUnits="userSpaceOnUse">
<stop stop-color="white"/>
<stop offset="1" stop-color="white" stop-opacity="0"/>
</linearGradient>
<linearGradient id="paint1_linear" x1="95.2992" y1="16.8914" x2="95.2992" y2="39.6668" gradientUnits="userSpaceOnUse">
<stop stop-color="white"/>
<stop offset="1" stop-color="white" stop-opacity="0"/>
</linearGradient>
<linearGradient id="paint2_linear" x1="112.776" y1="17.0129" x2="112.776" y2="39.5651" gradientUnits="userSpaceOnUse">
<stop stop-color="white"/>
<stop offset="1" stop-color="white" stop-opacity="0"/>
</linearGradient>
<linearGradient id="paint3_linear" x1="137.868" y1="16.8914" x2="137.868" y2="39.5657" gradientUnits="userSpaceOnUse">
<stop stop-color="white"/>
<stop offset="1" stop-color="white" stop-opacity="0"/>
</linearGradient>
<linearGradient id="paint4_linear" x1="95.2992" y1="6.17125" x2="95.2992" y2="13.3299" gradientUnits="userSpaceOnUse">
<stop stop-color="white"/>
<stop offset="1" stop-color="white" stop-opacity="0"/>
</linearGradient>
<linearGradient id="paint5_linear" x1="40.9518" y1="16.5192" x2="40.9518" y2="19.59" gradientUnits="userSpaceOnUse">
<stop stop-color="white"/>
<stop offset="1" stop-color="white" stop-opacity="0"/>
</linearGradient>
<linearGradient id="paint6_linear" x1="30.4026" y1="0" x2="30.4026" y2="40" gradientUnits="userSpaceOnUse">
<stop stop-color="white"/>
<stop offset="1" stop-color="white" stop-opacity="0"/>
</linearGradient>
<linearGradient id="paint7_linear" x1="46.4006" y1="11.4835" x2="46.4006" y2="20.3602" gradientUnits="userSpaceOnUse">
<stop stop-color="white"/>
<stop offset="1" stop-color="white" stop-opacity="0"/>
</linearGradient>
<linearGradient id="paint8_linear" x1="35.3172" y1="16.6673" x2="35.3172" y2="22.0881" gradientUnits="userSpaceOnUse">
<stop stop-color="white"/>
<stop offset="1" stop-color="white" stop-opacity="0"/>
</linearGradient>
<linearGradient id="paint9_linear" x1="8.03813" y1="30.9253" x2="8.03813" y2="36.356" gradientUnits="userSpaceOnUse">
<stop stop-color="white"/>
<stop offset="1" stop-color="white" stop-opacity="0"/>
</linearGradient>
</defs>
</svg>
